<svg width="30" height="33" viewBox="0 0 27 30" fill="none" xmlns="http://www.w3.org/2000/svg">
            <path
              d="M6.12403 15.0389C6.2568 13.9767 7.42732 13.3915 8.35666 13.9225L10.7597 15.2957C11.5282 15.7349 12.4718 15.7349 13.2403 15.2957L15.6433 13.9225C16.5727 13.3915 17.7432 13.9767 17.876 15.0389L19.2229 25.8139C19.3348 26.7092 18.6367 27.5 17.7344 27.5H6.26556C5.36332 27.5 4.66524 26.7092 4.77715 25.8139L6.12403 15.0389Z"
              stroke="#0D1222" />
            <path d="M15 12V10.0104C15 8.89583 14.0076 8 12.7985 8H11.2015C9.98099 8 9 8.90625 9 10.0104V12"
              stroke="#0D1222" stroke-width="1.2" stroke-miterlimit="10" stroke-linecap="round"
              stroke-linejoin="round" />
            <circle cx="9" cy="18" r="0.8" stroke="#0D1222" stroke-width="0.4" />
            <circle cx="15" cy="18" r="0.8" stroke="#0D1222" stroke-width="0.4" />
            <circle cx="19" cy="8" r="8" fill="#FF7676" />
            <path
              d="M16.634 10.27C17.4807 9.59 18.144 9.03333 18.624 8.6C19.104 8.16 19.5074 7.70333 19.834 7.23C20.1674 6.75 20.334 6.28 20.334 5.82C20.334 5.38667 20.2274 5.04667 20.014 4.8C19.8074 4.54667 19.4707 4.42 19.004 4.42C18.5507 4.42 18.1974 4.56333 17.944 4.85C17.6974 5.13 17.564 5.50667 17.544 5.98H16.664C16.6907 5.23333 16.9174 4.65667 17.344 4.25C17.7707 3.84333 18.3207 3.64 18.994 3.64C19.6807 3.64 20.224 3.83 20.624 4.21C21.0307 4.59 21.234 5.11333 21.234 5.78C21.234 6.33333 21.0674 6.87333 20.734 7.4C20.4074 7.92 20.034 8.38 19.614 8.78C19.194 9.17333 18.6574 9.63333 18.004 10.16H21.444V10.92H16.634V10.27Z"
              fill="white" />
          </svg>