<svg width="22" height="17" viewBox="0 0 22 17" fill="none" xmlns="http://www.w3.org/2000/svg">
<path d="M21.2857 5.48554V14.6003C21.2857 15.1054 21.1059 15.5378 20.7462 15.8975C20.3865 16.2572 19.9541 16.4371 19.449 16.4371H2.55103C2.04593 16.4371 1.61353 16.2572 1.25383 15.8975C0.894141 15.5378 0.714294 15.1054 0.714294 14.6003V5.48554C1.05103 5.86053 1.43751 6.19344 1.87373 6.48427C4.64414 8.36692 6.54593 9.68707 7.57908 10.4447C8.01531 10.7661 8.36926 11.0168 8.64094 11.1966C8.91264 11.3765 9.27425 11.5602 9.72578 11.7477C10.1773 11.9352 10.5982 12.0289 10.9885 12.0289H11.0115C11.4018 12.0289 11.8227 11.9352 12.2742 11.7477C12.7258 11.5602 13.0874 11.3765 13.3591 11.1966C13.6307 11.0168 13.9847 10.7661 14.4209 10.4447C15.7219 9.50339 17.6276 8.18324 20.1378 6.48427C20.574 6.1858 20.9566 5.85289 21.2857 5.48554ZM21.2857 2.11054C21.2857 2.71513 21.0982 3.29294 20.7232 3.84396C20.3482 4.39498 19.8814 4.86564 19.3227 5.25595C16.4452 7.2534 14.6543 8.49702 13.9503 8.98681C13.8737 9.04041 13.7111 9.15712 13.4624 9.33694C13.2137 9.51679 13.007 9.6622 12.8425 9.77316C12.6779 9.88413 12.479 10.0085 12.2455 10.1463C12.0121 10.284 11.7921 10.3873 11.5855 10.4562C11.3788 10.5251 11.1875 10.5596 11.0115 10.5596H10.9885C10.8125 10.5596 10.6212 10.5251 10.4145 10.4562C10.2079 10.3873 9.98789 10.284 9.75448 10.1463C9.52106 10.0085 9.32208 9.88413 9.15753 9.77316C8.99299 9.66219 8.78636 9.51678 8.53764 9.33694C8.28891 9.15709 8.12628 9.04038 8.04976 8.98681C7.35332 8.49702 6.35077 7.79868 5.04209 6.89179C3.73342 5.98489 2.94899 5.43961 2.68879 5.25595C2.2143 4.93452 1.76659 4.49255 1.34567 3.93005C0.924754 3.36755 0.714294 2.84523 0.714294 2.36309C0.714294 1.76615 0.873096 1.2687 1.1907 0.870735C1.5083 0.472781 1.96174 0.273804 2.55103 0.273804H19.449C19.9464 0.273804 20.3769 0.453649 20.7404 0.813341C21.104 1.17303 21.2857 1.60543 21.2857 2.11054Z" fill="white"/>
</svg>
