<svg width="20" height="20" viewBox="0 0 20 20" fill="none" xmlns="http://www.w3.org/2000/svg">
<path d="M0.343149 4.14555C0.374649 3.87406 0.495399 3.61903 0.703149 3.3797L3.58315 0.50777C3.8074 0.316308 3.9754 0.348467 4.08715 0.603501L6.41515 4.95927C6.5434 5.2143 6.5029 5.46185 6.29515 5.70118L5.23915 6.75422C5.04715 6.94569 4.9354 7.19324 4.90315 7.49614C4.90315 7.9748 5.1514 8.58882 5.64715 9.33896C6.1429 10.0891 6.63115 10.7271 7.11115 11.2543L7.85515 12.0194C8.0794 12.2431 8.36665 12.5183 8.7199 12.8451C9.07165 13.1719 9.6514 13.6027 10.4591 14.1375C11.2669 14.6722 11.9036 14.9392 12.3671 14.9392C12.6709 14.9392 12.9274 14.8353 13.1351 14.6281L14.3839 13.3836C14.6081 13.16 14.8474 13.1278 15.1031 13.2879L19.3039 15.7529C19.4156 15.8173 19.4802 15.9003 19.4959 16.0042C19.5117 16.1082 19.4802 16.2002 19.3999 16.2795L16.5199 19.1514C16.2799 19.3586 16.0234 19.479 15.7526 19.5096C14.9681 19.6218 14.0839 19.5141 13.0999 19.1866C12.1159 18.859 11.2046 18.4244 10.3646 17.8822C9.52465 17.34 8.74465 16.7895 8.02465 16.2316C7.30465 15.6729 6.72865 15.1943 6.29665 14.7956L5.67265 14.1966C5.5129 14.0373 5.30065 13.8181 5.03665 13.5384C4.77265 13.2587 4.3114 12.7097 3.65515 11.8878C2.9989 11.0659 2.43115 10.2641 1.95115 9.48256C1.47115 8.70101 1.05565 7.81101 0.703149 6.81406C0.351399 5.81711 0.231399 4.92711 0.343149 4.14555Z" fill="white"/>
</svg>
