<svg width="41" height="40" viewBox="0 0 41 40" fill="none" xmlns="http://www.w3.org/2000/svg">
<path d="M34.1275 6.56404C27.3671 7.81528 22.1894 6.0427 20.4457 5C15.7777 7.86742 9.60303 7.23745 6.83089 6.56404C4.48354 26.8315 15.2144 33.6524 20.4457 34C31.1095 32.436 35.9384 19.8584 34.1275 6.56404Z" stroke="white" stroke-width="2"/>
<path d="M26.1451 15.8409C26.6477 16.3325 26.6477 17.1294 26.1451 17.6209L19.7045 23.921C19.2019 24.4126 18.3872 24.4125 17.8847 23.921L14.2886 20.4034C13.786 19.9118 13.786 19.1149 14.2885 18.6234C14.791 18.1318 15.6059 18.1318 16.1082 18.6234L18.7946 21.251L24.3253 15.841C24.8278 15.3494 25.6426 15.3494 26.1451 15.8409Z" fill="white"/>
</svg>
