<svg width="12" height="13" viewBox="0 0 12 13" fill="none" xmlns="http://www.w3.org/2000/svg">
<path d="M5.23919 1.34164C5.47867 0.60459 6.52139 0.604592 6.76088 1.34164L7.61653 3.97508C7.72363 4.3047 8.0308 4.52786 8.37738 4.52786H11.1463C11.9213 4.52786 12.2435 5.51956 11.6166 5.97508L9.37643 7.60263C9.09604 7.80635 8.97871 8.16744 9.08581 8.49706L9.94147 11.1305C10.1809 11.8675 9.33736 12.4804 8.71039 12.0249L6.47026 10.3974C6.18987 10.1937 5.81019 10.1937 5.5298 10.3974L3.28967 12.0249C2.66269 12.4804 1.81911 11.8675 2.05859 11.1305L2.91425 8.49706C3.02135 8.16744 2.90402 7.80635 2.62363 7.60263L0.383496 5.97508C-0.243475 5.51956 0.0787463 4.52786 0.853725 4.52786H3.62269C3.96927 4.52786 4.27643 4.3047 4.38353 3.97508L5.23919 1.34164Z" fill="#FFCD1A"/>
</svg>
