<svg width="28" height="31" viewBox="0 0 28 31" fill="none" xmlns="http://www.w3.org/2000/svg">
<rect x="4" y="3" width="20" height="27" rx="9.5" stroke="white"/>
<path d="M1.50007 19.5C1.16673 24.1667 2.6 26.5 11 26.5" stroke="white" stroke-width="1.5"/>
<path fill-rule="evenodd" clip-rule="evenodd" d="M1.36965 13.8498C0.844468 14.2103 0.5 14.8149 0.5 15.5V20.5C0.5 21.6046 1.39543 22.5 2.5 22.5H4.5V13.5H2.5C2.44969 13.5 2.3998 13.5019 2.35042 13.5055C2.33909 13.2912 2.33083 13.0572 2.32785 12.8065C2.31261 11.5269 2.43518 9.83482 2.97576 8.153C3.51524 6.47461 4.46549 4.82187 6.09835 3.5862C7.72907 2.35216 10.0856 1.5 13.4998 1.5C16.9132 1.5 19.3381 2.35189 21.0677 3.59366C22.7999 4.83732 23.8733 6.49981 24.5345 8.18282C25.1968 9.86868 25.4402 11.563 25.5163 12.8422C25.5543 13.4803 25.5372 14.3806 25.5372 14.3806L26.5366 14.4163C26.5366 14.4163 26.5547 13.4572 26.5145 12.7828C26.4345 11.437 26.1779 9.63132 25.4652 7.81718C24.7514 6.00019 23.5749 4.16268 21.6509 2.78134C19.7242 1.39811 17.0865 0.5 13.4998 0.5C9.91403 0.5 7.33297 1.39784 5.49491 2.7888C3.659 4.17813 2.60924 6.02539 2.02373 7.847C1.43932 9.66518 1.3119 11.4731 1.32792 12.8185C1.33248 13.2017 1.34871 13.5488 1.36965 13.8498ZM2.5 14.5H3.5V21.5H2.5C1.94772 21.5 1.5 21.0523 1.5 20.5V15.5C1.5 15.1367 2.48964 14.5 2.5 14.5Z" fill="white"/>
<path d="M27 15.5C27 14.6716 26.3284 14 25.5 14H24V22H25.5C26.3284 22 27 21.3284 27 20.5V15.5Z" stroke="white"/>
<rect x="11" y="25" width="6" height="3" rx="1.5" stroke="white"/>
<path d="M4 15.5C5.5 15 9.2 13.6 10 12V14.5C11.1667 14 13.6 12.7 14 11.5L13 15C15.3333 14.6667 20.3 13.5 21.5 11.5L20.5 15C21.5 14.1667 23.6 12.4 24 12" stroke="white" stroke-linecap="round" stroke-linejoin="round"/>
</svg>
