   <svg class="close" width="24" height="24" viewBox="0 0 24 24" fill="none" xmlns="http://www.w3.org/2000/svg">
                        <path d="M13.6439 11.9998L18.657 6.99835C18.8765 6.77882 18.9998 6.48107 18.9998 6.17061C18.9998 5.86014 18.8765 5.5624 18.657 5.34286C18.4374 5.12333 18.1397 5 17.8292 5C17.5187 5 17.221 5.12333 17.0015 5.34286L12 10.356L6.99857 5.34286C6.77904 5.12333 6.48129 5 6.17083 5C5.86036 5 5.56261 5.12333 5.34308 5.34286C5.12355 5.5624 5.00022 5.86014 5.00022 6.17061C5.00022 6.48107 5.12355 6.77882 5.34308 6.99835L10.3562 11.9998L5.34308 17.0012C5.23381 17.1096 5.14708 17.2386 5.08789 17.3806C5.0287 17.5227 4.99823 17.6751 4.99823 17.829C4.99823 17.9829 5.0287 18.1353 5.08789 18.2773C5.14708 18.4194 5.23381 18.5484 5.34308 18.6567C5.45146 18.766 5.58041 18.8527 5.72247 18.9119C5.86454 18.9711 6.01692 19.0016 6.17083 19.0016C6.32473 19.0016 6.47711 18.9711 6.61918 18.9119C6.76125 18.8527 6.89019 18.766 6.99857 18.6567L12 13.6436L17.0015 18.6567C17.1098 18.766 17.2388 18.8527 17.3809 18.9119C17.5229 18.9711 17.6753 19.0016 17.8292 19.0016C17.9831 19.0016 18.1355 18.9711 18.2776 18.9119C18.4196 18.8527 18.5486 18.766 18.657 18.6567C18.7662 18.5484 18.853 18.4194 18.9121 18.2773C18.9713 18.1353 19.0018 17.9829 19.0018 17.829C19.0018 17.6751 18.9713 17.5227 18.9121 17.3806C18.853 17.2386 18.7662 17.1096 18.657 17.0012L13.6439 11.9998Z" fill="#000"/>
                    </svg> 