<svg width="1200" height="368" viewBox="0 0 1200 368" fill="none" xmlns="http://www.w3.org/2000/svg">
<path d="M1236.87 -88.487C1225.5 -4.96707 1121.78 159.311 937.581 76.7931C707.326 -26.3547 565.599 -28.7912 535.142 208.367C504.685 445.526 181.841 369.993 81.5356 281.058C-13.7932 196.536 -95.1151 212.834 -80.0896 296.084" stroke="#EAFBF5"/>
<path d="M1219.82 -88.487C1208.45 -4.96707 1104.73 159.311 920.525 76.7931C690.27 -26.3547 548.543 -28.7912 518.086 208.367C487.629 445.526 164.785 369.993 64.4797 281.058C-30.8492 196.536 -112.171 212.834 -97.1456 296.084" stroke="#EAFBF5"/>
<path d="M1202.76 -88.487C1191.39 -4.96707 1087.67 159.311 903.469 76.7931C673.214 -26.3547 531.487 -28.7912 501.03 208.367C470.573 445.526 147.729 369.993 47.4237 281.058C-47.9052 196.536 -129.227 212.834 -114.202 296.084" stroke="#EAFBF5"/>
<path d="M1256.36 -88.487C1244.99 -4.96707 1141.28 159.311 957.073 76.7931C726.818 -26.3547 585.092 -28.7912 554.635 208.367C524.178 445.526 201.333 369.993 101.028 281.058C5.6992 196.536 -75.6226 212.834 -60.5972 296.084" stroke="#EAFBF5"/>
<path d="M1275.86 -88.487C1264.49 -4.96707 1160.77 159.311 976.566 76.7931C746.311 -26.3547 604.584 -28.7912 574.127 208.367C543.67 445.526 220.826 369.993 120.52 281.058C25.1916 196.536 -56.1302 212.834 -41.1048 296.084" stroke="#EAFBF5"/>
<path d="M1295.35 -88.487C1283.98 -4.96707 1180.26 159.311 996.058 76.7931C765.803 -26.3547 624.077 -28.7912 593.62 208.367C563.163 445.526 240.318 369.993 140.013 281.058C44.6843 196.536 -36.6375 212.834 -21.6121 296.084" stroke="#EAFBF5"/>
<path d="M1314.84 -88.487C1303.47 -4.96707 1199.75 159.311 1015.55 76.7931C785.296 -26.3547 643.569 -28.7912 613.112 208.367C582.655 445.526 259.811 369.993 159.506 281.058C64.1767 196.536 -17.1451 212.834 -2.11964 296.084" stroke="#EAFBF5"/>
<rect width="139" height="45" transform="translate(531 252)" fill="#212121"/>
<path d="M568.502 279.098C567.587 279.098 566.747 278.883 565.982 278.454C565.217 278.025 564.61 277.432 564.162 276.676C563.714 275.911 563.49 275.047 563.49 274.086C563.49 273.134 563.714 272.28 564.162 271.524C564.61 270.759 565.217 270.161 565.982 269.732C566.747 269.303 567.587 269.088 568.502 269.088C569.426 269.088 570.266 269.303 571.022 269.732C571.787 270.161 572.389 270.759 572.828 271.524C573.276 272.28 573.5 273.134 573.5 274.086C573.5 275.047 573.276 275.911 572.828 276.676C572.389 277.432 571.787 278.025 571.022 278.454C570.257 278.883 569.417 279.098 568.502 279.098ZM568.502 277.348C569.09 277.348 569.608 277.217 570.056 276.956C570.504 276.685 570.854 276.303 571.106 275.808C571.358 275.313 571.484 274.739 571.484 274.086C571.484 273.433 571.358 272.863 571.106 272.378C570.854 271.883 570.504 271.505 570.056 271.244C569.608 270.983 569.09 270.852 568.502 270.852C567.914 270.852 567.391 270.983 566.934 271.244C566.486 271.505 566.136 271.883 565.884 272.378C565.632 272.863 565.506 273.433 565.506 274.086C565.506 274.739 565.632 275.313 565.884 275.808C566.136 276.303 566.486 276.685 566.934 276.956C567.391 277.217 567.914 277.348 568.502 277.348ZM576.918 272.448C577.17 272.037 577.497 271.715 577.898 271.482C578.309 271.249 578.776 271.132 579.298 271.132V273.19H578.78C578.164 273.19 577.698 273.335 577.38 273.624C577.072 273.913 576.918 274.417 576.918 275.136V279H574.958V271.244H576.918V272.448ZM580.114 275.094C580.114 274.31 580.268 273.615 580.576 273.008C580.894 272.401 581.323 271.935 581.864 271.608C582.406 271.281 583.008 271.118 583.67 271.118C584.174 271.118 584.655 271.23 585.112 271.454C585.57 271.669 585.934 271.958 586.204 272.322V268.64H588.192V279H586.204V277.852C585.962 278.235 585.621 278.543 585.182 278.776C584.744 279.009 584.235 279.126 583.656 279.126C583.003 279.126 582.406 278.958 581.864 278.622C581.323 278.286 580.894 277.815 580.576 277.208C580.268 276.592 580.114 275.887 580.114 275.094ZM586.218 275.122C586.218 274.646 586.125 274.24 585.938 273.904C585.752 273.559 585.5 273.297 585.182 273.12C584.865 272.933 584.524 272.84 584.16 272.84C583.796 272.84 583.46 272.929 583.152 273.106C582.844 273.283 582.592 273.545 582.396 273.89C582.21 274.226 582.116 274.627 582.116 275.094C582.116 275.561 582.21 275.971 582.396 276.326C582.592 276.671 582.844 276.937 583.152 277.124C583.47 277.311 583.806 277.404 584.16 277.404C584.524 277.404 584.865 277.315 585.182 277.138C585.5 276.951 585.752 276.69 585.938 276.354C586.125 276.009 586.218 275.598 586.218 275.122ZM597.317 274.954C597.317 275.234 597.298 275.486 597.261 275.71H591.591C591.637 276.27 591.833 276.709 592.179 277.026C592.524 277.343 592.949 277.502 593.453 277.502C594.181 277.502 594.699 277.189 595.007 276.564H597.121C596.897 277.311 596.467 277.927 595.833 278.412C595.198 278.888 594.419 279.126 593.495 279.126C592.748 279.126 592.076 278.963 591.479 278.636C590.891 278.3 590.429 277.829 590.093 277.222C589.766 276.615 589.603 275.915 589.603 275.122C589.603 274.319 589.766 273.615 590.093 273.008C590.419 272.401 590.877 271.935 591.465 271.608C592.053 271.281 592.729 271.118 593.495 271.118C594.232 271.118 594.89 271.277 595.469 271.594C596.057 271.911 596.509 272.364 596.827 272.952C597.153 273.531 597.317 274.198 597.317 274.954ZM595.287 274.394C595.277 273.89 595.095 273.489 594.741 273.19C594.386 272.882 593.952 272.728 593.439 272.728C592.953 272.728 592.543 272.877 592.207 273.176C591.88 273.465 591.679 273.871 591.605 274.394H595.287ZM600.707 272.448C600.959 272.037 601.286 271.715 601.687 271.482C602.098 271.249 602.565 271.132 603.087 271.132V273.19H602.569C601.953 273.19 601.487 273.335 601.169 273.624C600.861 273.913 600.707 274.417 600.707 275.136V279H598.747V271.244H600.707V272.448ZM616.101 279H614.141L609.703 272.294V279H607.743V269.214H609.703L614.141 275.934V269.214H616.101V279ZM621.482 279.126C620.736 279.126 620.064 278.963 619.466 278.636C618.869 278.3 618.398 277.829 618.052 277.222C617.716 276.615 617.548 275.915 617.548 275.122C617.548 274.329 617.721 273.629 618.066 273.022C618.421 272.415 618.902 271.949 619.508 271.622C620.115 271.286 620.792 271.118 621.538 271.118C622.285 271.118 622.962 271.286 623.568 271.622C624.175 271.949 624.651 272.415 624.996 273.022C625.351 273.629 625.528 274.329 625.528 275.122C625.528 275.915 625.346 276.615 624.982 277.222C624.628 277.829 624.142 278.3 623.526 278.636C622.92 278.963 622.238 279.126 621.482 279.126ZM621.482 277.418C621.837 277.418 622.168 277.334 622.476 277.166C622.794 276.989 623.046 276.727 623.232 276.382C623.419 276.037 623.512 275.617 623.512 275.122C623.512 274.385 623.316 273.82 622.924 273.428C622.542 273.027 622.07 272.826 621.51 272.826C620.95 272.826 620.479 273.027 620.096 273.428C619.723 273.82 619.536 274.385 619.536 275.122C619.536 275.859 619.718 276.429 620.082 276.83C620.456 277.222 620.922 277.418 621.482 277.418ZM637.718 271.244L635.45 279H633.336L631.922 273.582L630.508 279H628.38L626.098 271.244H628.086L629.458 277.152L630.942 271.244H633.014L634.47 277.138L635.842 271.244H637.718Z" fill="white"/>
</svg>
