<svg width="41" height="40" viewBox="0 0 41 40" fill="none" xmlns="http://www.w3.org/2000/svg">
<g clip-path="url(#clip0_0_146)">
<path d="M9.50809 19.3192V22.7882H8.79332V19.3192H9.50809ZM10.89 20.8012V21.3587H9.31272V20.8012H10.89ZM11.0568 19.3192V19.8791H9.31272V19.3192H11.0568ZM11.4713 19.3192H12.765C13.0303 19.3192 13.2582 19.3589 13.4488 19.4383C13.641 19.5178 13.7887 19.6353 13.892 19.791C13.9952 19.9466 14.0469 20.138 14.0469 20.3652C14.0469 20.551 14.0151 20.7106 13.9516 20.844C13.8896 20.9759 13.8015 21.0863 13.6871 21.1752C13.5743 21.2626 13.4417 21.3325 13.2892 21.3849L13.0629 21.504H11.9383L11.9335 20.9465H12.7698C12.8953 20.9465 12.9993 20.9243 13.0819 20.8798C13.1645 20.8353 13.2265 20.7734 13.2678 20.6939C13.3106 20.6145 13.3321 20.5224 13.3321 20.4176C13.3321 20.3064 13.3114 20.2103 13.2701 20.1293C13.2288 20.0483 13.1661 19.9863 13.0819 19.9434C12.9977 19.9006 12.8921 19.8791 12.765 19.8791H12.1861V22.7882H11.4713V19.3192ZM13.4107 22.7882L12.6197 21.2419L13.375 21.2372L14.1755 22.7549V22.7882H13.4107ZM16.925 22.2307V22.7882H15.0785V22.2307H16.925ZM15.312 19.3192V22.7882H14.5972V19.3192H15.312ZM16.6843 20.7321V21.2753H15.0785V20.7321H16.6843ZM16.9226 19.3192V19.8791H15.0785V19.3192H16.9226ZM19.6697 22.2307V22.7882H17.8232V22.2307H19.6697ZM18.0567 19.3192V22.7882H17.3419V19.3192H18.0567ZM19.429 20.7321V21.2753H17.8232V20.7321H19.429ZM19.6673 19.3192V19.8791H17.8232V19.3192H19.6673Z" fill="white"/>
<path d="M9.52881 26.5016V28.4185C9.52881 28.5148 9.60683 28.5928 9.70308 28.5928H13.0029C13.1034 28.5928 13.1846 28.508 13.188 28.4075C13.209 27.7846 13.4664 25.8045 15.8895 25.8045C18.3126 25.8045 18.57 27.7846 18.5911 28.4075C18.5945 28.508 18.6757 28.5928 18.7762 28.5928H30.7894C30.8856 28.5928 30.9649 28.5154 30.974 28.4196C31.0319 27.8107 31.4133 25.8045 33.9262 25.8045C36.4391 25.8045 36.8205 27.8107 36.8783 28.4196C36.8874 28.5154 36.9667 28.5928 37.063 28.5928H39.5027C39.5989 28.5928 39.677 28.5148 39.677 28.4185V23.118C39.677 23.0551 39.6431 22.9972 39.5885 22.9662L35.7067 20.7722C35.6818 20.7582 35.6608 20.7382 35.6455 20.7141L32.0606 15.0807C32.0286 15.0304 31.9731 15 31.9136 15H9.70308C9.60683 15 9.52881 15.078 9.52881 15.1743V16.7427" stroke="white" stroke-width="1.0456" stroke-linecap="round" stroke-linejoin="round"/>
<path d="M27.1297 21.0994V17.4398C27.1297 17.3435 27.2077 17.2655 27.304 17.2655H30.5171C30.5779 17.2655 30.6343 17.2972 30.666 17.3492L32.8935 21.0088C32.9642 21.1249 32.8806 21.2736 32.7447 21.2736H27.304C27.2077 21.2736 27.1297 21.1956 27.1297 21.0994Z" stroke="white" stroke-width="1.0456" stroke-linecap="round" stroke-linejoin="round"/>
<rect x="2.5" y="25.0215" width="11" height="0.305556" rx="0.152778" fill="white"/>
<rect x="1.5" y="24.0619" width="12.1987" height="0.348534" rx="0.174267" fill="white"/>
<rect x="2.55835" y="22.3191" width="3.48534" height="0.348534" rx="0.174267" fill="white"/>
<circle cx="15.8025" cy="28.5927" r="2.614" stroke="white" stroke-width="1.0456"/>
<circle cx="33.9262" cy="28.5927" r="2.614" stroke="white" stroke-width="1.0456"/>
</g>
<defs>
<clipPath id="clip0_0_146">
<rect width="40" height="40" fill="white" transform="translate(0.5)"/>
</clipPath>
</defs>
</svg>
